<?xml version="1.0" encoding="utf-8" ?>
<svg xmlns="http://www.w3.org/2000/svg" width="512" height="512">
    <path fill="#FFF"
          d="M213.164 451.395L190.932 439.374L62.5174 364.154C55.039 359.954 46.9626 356.38 40.3697 350.803C26.016 338.662 22.9039 322.331 22.924 304.815L22.982 188.255C22.9649 151.798 22.5209 148.713 54.4785 128.981L60.7721 125.104C68.9013 120.13 66.8291 123.982 66.8646 112.484L66.9414 95.0065C67.9597 94.2166 69.1397 94.0043 70.2622 93.411L155.941 42.6415C174.689 31.3589 187.771 19.8663 211.598 24.6315C226.416 27.595 238.415 37.8261 251.32 45.0223L254.871 46.8767C256.651 47.775 256.771 47.0614 258.528 46.1113L281.252 32.5611C288.196 28.5941 301.235 22.183 309.618 23.8197C325.797 24.1943 328.494 26.074 342.952 34.8008L390.743 63.5575L443.845 94.1485C446.014 95.2414 445.313 96.1419 445.312 98.3318L445.324 115.742C445.332 117.856 444.227 122.402 446.799 123.292L447.842 123.661C449.24 124.283 450.577 125.344 451.893 126.151L460.022 130.957C481.225 143.273 489.496 151.305 489.509 176.161L489.494 303.142C489.449 335.578 481.081 347.004 452.14 363.12L360.35 417.078L293.371 454.956C284.102 460.697 285.872 462.254 280.838 471.091C271.142 488.112 242.936 490.299 232.365 473.09C224.347 460.037 228.542 460.202 213.164 451.395ZM200.149 73.8516C191.505 74.6155 185.454 79.2283 178.244 83.578L124.5 115.092L124.388 137.785L79.4111 163.504C78.2859 164.108 77.1142 164.267 76.3372 165.35L76.4474 299.062C76.4123 316.511 80.2579 319.344 95.5437 328.437L208.505 394.539C215.083 398.9 220.55 404.491 226.984 408.915C228.556 402.059 228.311 395.151 228.312 388.161L228.29 368.625L228.272 351.89C227.094 350.78 225.315 350.294 223.875 349.511L127.437 293.343C126.539 292.847 125.145 292.465 124.518 291.694L124.78 238.562L135.808 244.182L224.622 296.143C225.844 296.817 227.51 297.302 228.363 298.404L228.377 103.437C228.741 87.0324 218.577 73.4647 201.122 73.7991L200.149 73.8516ZM306.901 73.8287C295.335 75.7032 287.886 82.9648 284.379 93.7422C283.155 97.5061 283.689 102.366 283.697 106.313L283.895 298.58C285.207 297.538 289.382 295.473 291.154 294.421L376.125 244.344C377.298 243.659 386.813 238.676 387.011 238.494L387.055 292.183C376.747 297.175 367.313 303.515 357.488 309.359L287.51 350.219C286.248 350.998 284.638 351.599 283.752 352.795L283.741 375.375C283.712 386.464 282.682 399.062 285.603 409.906C298.774 397.479 303.862 394.449 319.751 385.233L416.339 328.726C425.826 323.426 435.336 319.515 435.742 306.754L435.61 164.87C433.33 163.384 429.581 161.803 426.75 160.112L388.594 138.116C388.035 135.433 388.117 132.641 388.096 129.911L387.983 118.089C387.846 113.08 385.815 114.068 381.157 111.316L328.26 80.3444C320.975 76.014 315.591 73.0846 306.901 73.8287Z"/>
</svg>
